<?xml version="1.0" encoding="utf-8"?>
<!-- Generator: Adobe Illustrator 15.0.0, SVG Export Plug-In  -->
<!DOCTYPE svg PUBLIC "-//W3C//DTD SVG 1.1//EN" "http://www.w3.org/Graphics/SVG/1.1/DTD/svg11.dtd" [
	<!ENTITY ns_flows "http://ns.adobe.com/Flows/1.0/">
]>
<svg version="1.1"
	 xmlns="http://www.w3.org/2000/svg" xmlns:xlink="http://www.w3.org/1999/xlink" xmlns:a="http://ns.adobe.com/AdobeSVGViewerExtensions/3.0/"
	 x="0px" y="0px" width="770px" height="155px" viewBox="-21.287 -5.687 770 155" enable-background="new -21.287 -5.687 770 155"
	 xml:space="preserve">
<defs>
</defs>
<path fill="#3D5666" d="M62.891,93.464c0,5.428-1.401,10.502-4.204,15.223s-6.62,8.266-11.45,10.637
	c-4.604,2.327-10.961,3.49-19.072,3.49H0V22.257h15.791c9.023,0,15.723,0.592,20.098,1.775c5.924,1.593,10.641,4.485,14.15,8.673
	c3.691,4.326,5.537,9.494,5.537,15.503c0,7.648-3.441,14.045-10.322,19.189C57.012,72.917,62.891,81.605,62.891,93.464z
	 M36.982,50.694c0-6.836-4.313-10.254-12.939-10.254h-4.903v21.191h4.154C32.419,61.632,36.982,57.986,36.982,50.694z
	 M44.023,92.841c0-9.367-6.977-14.051-20.929-14.051h-3.954v25.84h4.772c5.999,0,10.43-0.548,13.293-1.645
	C41.75,101.203,44.023,97.821,44.023,92.841z"/>
<path fill="#3D5666" d="M98.369,30.016c0,3.317-1.148,6.147-3.442,8.487c-2.294,2.34-5.078,3.51-8.35,3.51
	c-3.363,0-6.204-1.192-8.521-3.578s-3.476-5.283-3.476-8.691c0-3.271,1.158-6.067,3.476-8.385s5.112-3.477,8.385-3.477
	c3.317,0,6.134,1.183,8.452,3.545C97.21,23.79,98.369,26.653,98.369,30.016z M95.908,122.813H77.109V48.438h18.799V122.813z"/>
<path fill="#3D5666" d="M129.473,122.813h-18.73V19.728h18.73V122.813z"/>
<path fill="#3D5666" d="M223.262,85.763c0,10.437-3.254,19.46-9.764,27.07c-6.829,7.93-15.386,11.895-25.673,11.895
	c-8.421,0-16.068-3.258-22.942-9.775v7.861h-18.594V19.728h18.594v36.914c6.737-6.744,14.566-10.117,23.488-10.117
	c10.47,0,19.004,3.988,25.605,11.963C220.167,65.962,223.262,75.054,223.262,85.763z M204.6,85.558
	c0-6.133-1.817-11.244-5.451-15.333c-3.725-4.27-8.629-6.405-14.715-6.405c-6.132,0-11.105,2.09-14.92,6.27
	c-3.634,4.043-5.451,9.177-5.451,15.401c0,6.271,1.793,11.472,5.382,15.605c3.815,4.315,8.811,6.474,14.989,6.474
	c5.994,0,10.9-2.203,14.715-6.61C202.783,96.78,204.6,91.646,204.6,85.558z"/>
<path fill="#3D5666" d="M313.086,85.558c0,7.019-1.732,13.581-5.195,19.688c-3.464,6.107-8.215,10.881-14.253,14.321
	c-6.039,3.44-12.681,5.161-19.927,5.161c-10.801,0-19.938-3.794-27.412-11.382c-7.475-7.588-11.211-16.805-11.211-27.651
	c0-11.666,4.261-21.351,12.783-29.053c7.428-6.744,16.019-10.117,25.771-10.117c7.018,0,13.614,1.743,19.79,5.229
	c6.175,3.486,10.994,8.249,14.458,14.287C311.354,72.08,313.086,78.585,313.086,85.558z M294.15,85.626
	c0-6.178-1.84-11.3-5.519-15.366c-3.679-4.065-8.584-6.099-14.715-6.099c-5.995,0-10.9,2.09-14.715,6.269
	c-3.634,4.044-5.451,9.108-5.451,15.196c0,6.18,1.793,11.29,5.382,15.333c3.723,4.226,8.629,6.337,14.715,6.337
	s11.013-2.111,14.784-6.337C292.31,96.87,294.15,91.759,294.15,85.626z"/>
<path fill="#3D5666" d="M382.197,48.438l-33.496,58.516h31.582v15.859H319.99l33.633-58.516h-28.506V48.438H382.197z"/>
<path fill="#3D5666" d="M466.279,122.813h-23.174l-31.514-34.248v34.248h-18.73V19.728h18.73v59.404l27.446-30.693h23.35
	l-31.952,35.684L466.279,122.813z"/>
<path fill="#3D5666" d="M547.49,122.813h-18.662v-7.861c-6.874,6.518-14.499,9.775-22.874,9.775
	c-10.288,0-18.846-3.965-25.673-11.895c-6.509-7.61-9.764-16.634-9.764-27.07c0-10.709,3.096-19.801,9.286-27.275
	c6.6-7.975,15.136-11.963,25.604-11.963c8.967,0,16.774,3.373,23.42,10.117v-8.203h18.662V122.813z M529.717,85.49
	c0-6.224-1.863-11.392-5.587-15.503c-3.725-4.111-8.676-6.167-14.852-6.167c-6.041,0-10.947,2.135-14.717,6.405
	c-3.589,4.089-5.382,9.2-5.382,15.333c0,6.088,1.816,11.223,5.45,15.401c3.815,4.407,8.721,6.61,14.716,6.61
	c6.177,0,11.174-2.158,14.989-6.474C527.922,96.962,529.717,91.761,529.717,85.49z"/>
<path fill="#3D5666" d="M598.281,64.571h-11.006v58.242h-18.662V64.571h-9.57V48.438h9.57V21.026h18.662v27.412h11.006V64.571z"/>
<path fill="#3D5666" d="M673.613,79.952c0,12.988-1.025,21.875-3.076,26.66c-5.195,12.077-15.085,18.115-29.668,18.115
	c-15.905,0-26.045-6.904-30.42-20.713c-1.459-4.603-2.188-12.806-2.188-24.609V48.438h18.936v35.779
	c0,5.325,0.204,9.104,0.612,11.334c0.815,4.371,2.63,7.533,5.441,9.49c2.085,1.503,4.67,2.254,7.755,2.254
	c6.303,0,10.52-2.912,12.651-8.739c0.771-2.14,1.157-6.714,1.157-13.726V48.438h18.799V79.952z"/>
<polygon fill-rule="evenodd" clip-rule="evenodd" fill="#E53238" points="730.007,33.916 710.346,45.189 690.713,33.869 
	690.739,11.273 710.4,0 710.19,24.052 "/>
<polygon fill-rule="evenodd" clip-rule="evenodd" fill="#EF8F97" points="690.713,33.916 710.373,45.189 730.007,33.869 
	729.979,11.273 710.319,0 710.528,24.052 "/>
<polygon fill-rule="evenodd" clip-rule="evenodd" fill="#EB6C75" points="730.007,11.772 710.346,23.047 690.713,11.726 
	690.739,11.273 710.4,0 730.033,11.321 "/>
<polygon fill-rule="evenodd" clip-rule="evenodd" fill="#F4AEB7" points="730.007,34.732 710.346,46.006 690.713,34.685 
	690.739,34.234 710.4,22.958 730.033,34.28 "/>
</svg>
