<?xml version="1.0" encoding="utf-8"?>
<!-- Generator: Adobe Illustrator 15.0.0, SVG Export Plug-In  -->
<!DOCTYPE svg PUBLIC "-//W3C//DTD SVG 1.1//EN" "http://www.w3.org/Graphics/SVG/1.1/DTD/svg11.dtd" [
	<!ENTITY ns_flows "http://ns.adobe.com/Flows/1.0/">
]>
<svg version="1.1"
	 xmlns="http://www.w3.org/2000/svg" xmlns:xlink="http://www.w3.org/1999/xlink" xmlns:a="http://ns.adobe.com/AdobeSVGViewerExtensions/3.0/"
	 x="0px" y="0px" width="600px" height="50px" viewBox="-7.097 -10.187 600 50" enable-background="new -7.097 -10.187 600 50"
	 xml:space="preserve">
<defs>
</defs>
<path fill="#3B5566" d="M17.969,21.595c0,1.551-0.4,3-1.201,4.35c-0.801,1.349-1.892,2.361-3.271,3.039
	c-1.315,0.664-3.132,0.997-5.449,0.997H0V1.25h4.512c2.578,0,4.492,0.169,5.742,0.507c1.692,0.455,3.04,1.281,4.043,2.478
	c1.055,1.236,1.582,2.712,1.582,4.429c0,2.186-0.983,4.013-2.949,5.483C16.289,15.724,17.969,18.207,17.969,21.595z M10.566,9.375
	c0-1.953-1.232-2.93-3.697-2.93H5.469V12.5h1.187C9.263,12.5,10.566,11.458,10.566,9.375z M12.578,21.417
	c0-2.676-1.993-4.015-5.979-4.015h-1.13v7.383h1.363c1.714,0,2.98-0.157,3.798-0.47C11.929,23.806,12.578,22.84,12.578,21.417z"/>
<path fill="#3B5566" d="M28.105,3.467c0,0.948-0.328,1.756-0.983,2.425c-0.656,0.669-1.451,1.003-2.386,1.003
	c-0.961,0-1.772-0.341-2.435-1.022s-0.993-1.509-0.993-2.483c0-0.935,0.331-1.733,0.993-2.396C22.964,0.331,23.762,0,24.697,0
	c0.948,0,1.752,0.338,2.415,1.013C27.774,1.688,28.105,2.506,28.105,3.467z M27.402,29.98h-5.371V8.73h5.371V29.98z"/>
<path fill="#3B5566" d="M36.992,29.98h-5.352V0.527h5.352V29.98z"/>
<path fill="#3B5566" d="M63.789,19.395c0,2.981-0.93,5.56-2.79,7.734c-1.951,2.266-4.396,3.398-7.335,3.398
	c-2.406,0-4.591-0.931-6.555-2.793v2.246h-5.313V0.527h5.313v10.547c1.925-1.927,4.162-2.891,6.711-2.891
	c2.991,0,5.43,1.14,7.315,3.418C62.905,13.737,63.789,16.335,63.789,19.395z M58.457,19.336c0-1.753-0.519-3.212-1.557-4.381
	c-1.064-1.22-2.466-1.83-4.205-1.83c-1.752,0-3.173,0.597-4.263,1.792c-1.038,1.155-1.557,2.622-1.557,4.401
	c0,1.791,0.512,3.277,1.538,4.458c1.09,1.233,2.518,1.85,4.283,1.85c1.713,0,3.114-0.63,4.205-1.889
	C57.938,22.542,58.457,21.075,58.457,19.336z"/>
<path fill="#3B5566" d="M89.453,19.336c0,2.005-0.495,3.88-1.484,5.625c-0.99,1.745-2.347,3.108-4.072,4.092
	c-1.726,0.983-3.623,1.475-5.693,1.475c-3.086,0-5.697-1.084-7.832-3.252c-2.136-2.168-3.203-4.802-3.203-7.9
	c0-3.333,1.217-6.1,3.652-8.301c2.122-1.927,4.577-2.891,7.363-2.891c2.005,0,3.89,0.498,5.654,1.494
	c1.764,0.996,3.141,2.357,4.131,4.082C88.958,15.485,89.453,17.344,89.453,19.336z M84.043,19.355c0-1.765-0.526-3.229-1.577-4.39
	c-1.051-1.162-2.453-1.743-4.205-1.743c-1.713,0-3.114,0.597-4.205,1.791c-1.038,1.155-1.557,2.603-1.557,4.342
	c0,1.766,0.512,3.226,1.538,4.381c1.064,1.207,2.466,1.811,4.205,1.811s3.146-0.604,4.224-1.811
	C83.517,22.567,84.043,21.108,84.043,19.355z"/>
<path fill="#3B5566" d="M102.93,13.34h-3.145V29.98h-5.332V13.34h-2.734V8.73h2.734V0.898h5.332V8.73h3.145V13.34z"/>
<path fill="#3B5566" d="M126.816,29.98h-5.332v-2.246c-1.964,1.862-4.143,2.793-6.535,2.793c-2.939,0-5.385-1.133-7.335-3.398
	c-1.86-2.175-2.79-4.753-2.79-7.734c0-3.06,0.884-5.657,2.653-7.793c1.886-2.278,4.324-3.418,7.315-3.418
	c2.562,0,4.792,0.964,6.691,2.891V8.73h5.332V29.98z M121.738,19.317c0-1.779-0.532-3.256-1.596-4.43
	c-1.064-1.175-2.479-1.762-4.243-1.762c-1.726,0-3.128,0.61-4.205,1.83c-1.025,1.169-1.538,2.628-1.538,4.381
	c0,1.739,0.519,3.206,1.557,4.4c1.09,1.259,2.492,1.889,4.205,1.889c1.765,0,3.192-0.616,4.283-1.85
	C121.226,22.595,121.738,21.108,121.738,19.317z"/>
<path fill="#3B5566" d="M142.363,8.73l-1.66,4.609c-0.623-0.313-1.135-0.469-1.536-0.469c-0.817,0-1.504,0.507-2.062,1.521
	c-0.622,1.106-0.908,3.096-0.855,5.97l0.02,1.034v8.584h-5.313V8.73h4.59v2.676c1-2.148,2.551-3.223,4.654-3.223
	C140.89,8.184,141.61,8.366,142.363,8.73z"/>
<path fill="#3B5566" d="M155.156,8.73l-1.66,4.609c-0.623-0.313-1.135-0.469-1.536-0.469c-0.817,0-1.504,0.507-2.062,1.521
	c-0.622,1.106-0.908,3.096-0.855,5.97l0.02,1.034v8.584h-5.313V8.73h4.59v2.676c1-2.148,2.551-3.223,4.654-3.223
	C153.683,8.184,154.403,8.366,155.156,8.73z"/>
<path fill="#3B5566" d="M179.102,19.883l-0.02,1.016h-17.109c0.26,1.557,0.936,2.766,2.028,3.628
	c1.093,0.863,2.445,1.294,4.058,1.294c1.99,0,3.7-0.69,5.13-2.07l4.487,2.109c-2.188,3.112-5.384,4.668-9.59,4.668
	c-3.269,0-5.967-1.028-8.096-3.086s-3.193-4.714-3.193-7.969c0-3.216,1.032-5.901,3.096-8.057c2.063-2.155,4.697-3.232,7.9-3.232
	c3.346,0,6.067,1.068,8.164,3.203C178.118,13.601,179.167,16.433,179.102,19.883z M173.711,16.68
	c-0.363-1.225-1.071-2.192-2.122-2.901c-1.051-0.709-2.232-1.064-3.542-1.064c-1.479,0-2.777,0.413-3.893,1.238
	c-0.701,0.516-1.35,1.425-1.946,2.727H173.711z"/>
<path fill="#3B5566" d="M202.246,29.98h-5.293v-9.306c0-1.938-0.032-3.167-0.097-3.688c-0.195-1.586-0.667-2.679-1.419-3.277
	c-0.57-0.429-1.27-0.644-2.1-0.644c-2.281,0-3.739,1.359-4.374,4.077c-0.156,0.664-0.233,2.101-0.233,4.312v8.525h-5.332V8.73h5.332
	v2.168c2.158-1.81,4.258-2.715,6.299-2.715c2.119,0,3.907,0.736,5.364,2.207c1.235,1.237,1.853,3.086,1.853,5.547V29.98z"/>
<path fill="#EA6872" d="M241.992,29.98h-5.508V17.363h-9.648V29.98h-5.527V1.25h5.527v10.84h9.648V1.25h5.508V29.98z"/>
<path fill="#EA6872" d="M253.438,3.467c0,0.948-0.328,1.756-0.983,2.425c-0.656,0.669-1.451,1.003-2.386,1.003
	c-0.961,0-1.772-0.341-2.435-1.022s-0.993-1.509-0.993-2.483c0-0.935,0.331-1.733,0.993-2.396C248.296,0.331,249.094,0,250.029,0
	c0.948,0,1.752,0.338,2.415,1.013C253.106,1.688,253.438,2.506,253.438,3.467z M252.734,29.98h-5.371V8.73h5.371V29.98z"/>
<path fill="#EA6872" d="M267.695,8.73l-1.66,4.609c-0.623-0.313-1.135-0.469-1.536-0.469c-0.817,0-1.504,0.507-2.062,1.521
	c-0.622,1.106-0.908,3.096-0.855,5.97l0.02,1.034v8.584h-5.313V8.73h4.59v2.676c1-2.148,2.551-3.223,4.654-3.223
	C266.222,8.184,266.942,8.366,267.695,8.73z"/>
<path fill="#EA6872" d="M275.82,3.467c0,0.948-0.328,1.756-0.983,2.425c-0.656,0.669-1.451,1.003-2.386,1.003
	c-0.961,0-1.772-0.341-2.435-1.022s-0.993-1.509-0.993-2.483c0-0.935,0.331-1.733,0.993-2.396C270.679,0.331,271.477,0,272.412,0
	c0.948,0,1.752,0.338,2.415,1.013C275.489,1.688,275.82,2.506,275.82,3.467z M275.117,29.98h-5.371V8.73h5.371V29.98z"/>
<path fill="#EA6872" d="M310.898,9.58c0,1.938-0.508,3.583-1.523,4.936s-2.454,2.296-4.316,2.829
	c-1.042,0.299-2.962,0.448-5.762,0.448V29.98h-5.469V1.25h5.801c2.513,0,4.388,0.169,5.625,0.507c1.979,0.52,3.464,1.574,4.453,3.16
	C310.501,6.218,310.898,7.772,310.898,9.58z M305.586,9.581c0-1.111-0.429-1.92-1.285-2.43c-0.636-0.379-1.791-0.568-3.466-0.568
	h-1.538v5.898h1.732c2.168,0,3.538-0.424,4.109-1.274C305.437,10.763,305.586,10.221,305.586,9.581z"/>
<path fill="#EA6872" d="M325.82,8.73l-1.66,4.609c-0.623-0.313-1.135-0.469-1.536-0.469c-0.816,0-1.504,0.507-2.062,1.521
	c-0.622,1.106-0.907,3.096-0.855,5.97l0.02,1.034v8.584h-5.313V8.73h4.59v2.676c1-2.148,2.551-3.223,4.654-3.223
	C324.347,8.184,325.067,8.366,325.82,8.73z"/>
<path fill="#EA6872" d="M349.707,19.336c0,2.005-0.495,3.88-1.484,5.625s-2.347,3.108-4.072,4.092s-3.623,1.475-5.693,1.475
	c-3.086,0-5.696-1.084-7.832-3.252s-3.203-4.802-3.203-7.9c0-3.333,1.218-6.1,3.652-8.301c2.122-1.927,4.577-2.891,7.363-2.891
	c2.005,0,3.89,0.498,5.654,1.494s3.142,2.357,4.131,4.082C349.212,15.485,349.707,17.344,349.707,19.336z M344.297,19.355
	c0-1.765-0.525-3.229-1.577-4.39c-1.051-1.162-2.452-1.743-4.204-1.743c-1.713,0-3.114,0.597-4.204,1.791
	c-1.038,1.155-1.558,2.603-1.558,4.342c0,1.766,0.513,3.226,1.538,4.381c1.063,1.207,2.465,1.811,4.204,1.811
	s3.146-0.604,4.224-1.811C343.771,22.567,344.297,21.108,344.297,19.355z"/>
<path fill="#EA6872" d="M376.055,19.395c0,2.981-0.93,5.56-2.79,7.734c-1.95,2.266-4.396,3.398-7.335,3.398
	c-2.406,0-4.591-0.931-6.555-2.793v10.02h-5.313V8.73h5.313v2.344c1.925-1.927,4.162-2.891,6.711-2.891
	c2.991,0,5.43,1.14,7.315,3.418C375.17,13.737,376.055,16.335,376.055,19.395z M370.723,19.336c0-1.753-0.52-3.212-1.558-4.381
	c-1.063-1.22-2.465-1.83-4.204-1.83c-1.752,0-3.173,0.597-4.263,1.792c-1.038,1.155-1.558,2.622-1.558,4.401
	c0,1.791,0.513,3.277,1.538,4.458c1.09,1.233,2.517,1.85,4.282,1.85c1.713,0,3.114-0.63,4.204-1.889
	C370.203,22.542,370.723,21.075,370.723,19.336z"/>
<path fill="#EA6872" d="M401.719,19.336c0,2.005-0.495,3.88-1.484,5.625s-2.347,3.108-4.072,4.092s-3.623,1.475-5.693,1.475
	c-3.086,0-5.696-1.084-7.832-3.252s-3.203-4.802-3.203-7.9c0-3.333,1.218-6.1,3.652-8.301c2.122-1.927,4.577-2.891,7.363-2.891
	c2.005,0,3.89,0.498,5.654,1.494s3.142,2.357,4.131,4.082C401.224,15.485,401.719,17.344,401.719,19.336z M396.309,19.355
	c0-1.765-0.525-3.229-1.577-4.39c-1.051-1.162-2.452-1.743-4.204-1.743c-1.713,0-3.114,0.597-4.204,1.791
	c-1.038,1.155-1.558,2.603-1.558,4.342c0,1.766,0.513,3.226,1.538,4.381c1.063,1.207,2.465,1.811,4.204,1.811
	s3.146-0.604,4.224-1.811C395.783,22.567,396.309,21.108,396.309,19.355z"/>
<path fill="#EA6872" d="M419.473,23.899c0,2.072-0.774,3.721-2.324,4.946c-1.419,1.121-3.196,1.682-5.332,1.682
	c-3.099,0-5.573-1.211-7.422-3.633l3.274-3.574c1.391,1.641,2.866,2.461,4.426,2.461c0.571,0,1.085-0.13,1.54-0.392
	c0.532-0.325,0.799-0.756,0.799-1.29c0-0.834-0.773-1.636-2.319-2.405l-1.793-0.898c-3.431-1.721-5.146-3.892-5.146-6.512
	c0-1.825,0.71-3.317,2.129-4.478c1.315-1.082,2.91-1.623,4.785-1.623c2.917,0,5.247,1.172,6.992,3.516L415.781,15
	c-1.337-1.341-2.55-2.012-3.64-2.012c-1.271,0-1.907,0.443-1.907,1.33c0,0.547,0.637,1.141,1.91,1.779l1.949,0.979
	c1.754,0.873,3.021,1.74,3.8,2.6C418.946,20.835,419.473,22.243,419.473,23.899z"/>
<path fill="#EA6872" d="M444.688,29.98h-5.332v-2.246c-1.964,1.862-4.143,2.793-6.535,2.793c-2.939,0-5.385-1.133-7.335-3.398
	c-1.86-2.175-2.79-4.753-2.79-7.734c0-3.06,0.885-5.657,2.653-7.793c1.886-2.278,4.324-3.418,7.315-3.418
	c2.563,0,4.793,0.964,6.691,2.891V8.73h5.332V29.98z M439.609,19.317c0-1.779-0.532-3.256-1.597-4.43
	c-1.063-1.175-2.479-1.762-4.243-1.762c-1.726,0-3.127,0.61-4.204,1.83c-1.025,1.169-1.538,2.628-1.538,4.381
	c0,1.739,0.52,3.206,1.558,4.4c1.09,1.259,2.491,1.889,4.204,1.889c1.765,0,3.192-0.616,4.282-1.85
	C439.097,22.595,439.609,21.108,439.609,19.317z"/>
<path fill="#EA6872" d="M482.656,29.98h-5.391V19.212c0-1.848-0.163-3.206-0.488-4.078c-0.547-1.392-1.582-2.087-3.105-2.087
	c-1.953,0-3.308,0.976-4.063,2.927c-0.352,0.923-0.527,2.399-0.527,4.428v9.579h-5.391V19.699c0-3.187-0.56-5.195-1.68-6.028
	c-0.56-0.417-1.237-0.625-2.031-0.625c-1.927,0-3.269,1.001-4.023,3.005c-0.364,0.949-0.547,2.445-0.547,4.486v9.442h-5.371V8.73
	h5.371v2.441c1.813-1.992,4.041-2.988,6.688-2.988c2.79,0,4.85,1.276,6.18,3.828c1.734-2.552,4.121-3.828,7.159-3.828
	c1.409,0,2.68,0.319,3.814,0.957c1.227,0.677,2.113,1.628,2.661,2.852c0.495,1.133,0.743,2.976,0.743,5.527V29.98z"/>
<path fill="#EA6872" d="M508.984,19.883l-0.02,1.016h-17.109c0.26,1.557,0.936,2.766,2.028,3.628
	c1.093,0.863,2.445,1.294,4.058,1.294c1.99,0,3.7-0.69,5.131-2.07l4.486,2.109c-2.188,3.112-5.384,4.668-9.59,4.668
	c-3.269,0-5.967-1.028-8.096-3.086s-3.193-4.714-3.193-7.969c0-3.216,1.032-5.901,3.096-8.057c2.063-2.155,4.697-3.232,7.9-3.232
	c3.347,0,6.067,1.068,8.164,3.203C508.001,13.601,509.05,16.433,508.984,19.883z M503.594,16.68
	c-0.363-1.225-1.071-2.192-2.122-2.901c-1.051-0.709-2.231-1.064-3.542-1.064c-1.479,0-2.777,0.413-3.894,1.238
	c-0.7,0.516-1.35,1.425-1.946,2.727H503.594z"/>
<path fill="#EA6872" d="M532.129,29.98h-5.293v-9.306c0-1.938-0.032-3.167-0.097-3.688c-0.195-1.586-0.668-2.679-1.419-3.277
	c-0.571-0.429-1.271-0.644-2.1-0.644c-2.281,0-3.739,1.359-4.374,4.077c-0.156,0.664-0.233,2.101-0.233,4.312v8.525h-5.332V8.73
	h5.332v2.168c2.158-1.81,4.258-2.715,6.3-2.715c2.119,0,3.907,0.736,5.363,2.207c1.235,1.237,1.853,3.086,1.853,5.547V29.98z"/>
<path fill="#EA6872" d="M558.301,29.98h-5.332v-2.246c-1.964,1.862-4.143,2.793-6.535,2.793c-2.939,0-5.385-1.133-7.335-3.398
	c-1.86-2.175-2.79-4.753-2.79-7.734c0-3.06,0.885-5.657,2.653-7.793c1.886-2.278,4.324-3.418,7.315-3.418
	c2.563,0,4.793,0.964,6.691,2.891V8.73h5.332V29.98z M553.223,19.317c0-1.779-0.532-3.256-1.597-4.43
	c-1.063-1.175-2.479-1.762-4.243-1.762c-1.726,0-3.127,0.61-4.204,1.83c-1.025,1.169-1.538,2.628-1.538,4.381
	c0,1.739,0.52,3.206,1.558,4.4c1.09,1.259,2.491,1.889,4.204,1.889c1.765,0,3.192-0.616,4.282-1.85
	C552.71,22.595,553.223,21.108,553.223,19.317z"/>
<path fill="#EA6872" d="M584.707,29.98h-6.621l-9.004-9.785v9.785h-5.352V0.527h5.352V17.5l7.842-8.77h6.672l-9.13,10.195
	L584.707,29.98z"/>
</svg>
