<?xml version="1.0" encoding="utf-8"?>
<!-- Generator: Adobe Illustrator 15.0.0, SVG Export Plug-In  -->
<!DOCTYPE svg PUBLIC "-//W3C//DTD SVG 1.1//EN" "http://www.w3.org/Graphics/SVG/1.1/DTD/svg11.dtd" [
	<!ENTITY ns_flows "http://ns.adobe.com/Flows/1.0/">
]>
<svg version="1.1"
	 xmlns="http://www.w3.org/2000/svg" xmlns:xlink="http://www.w3.org/1999/xlink" xmlns:a="http://ns.adobe.com/AdobeSVGViewerExtensions/3.0/"
	 x="0px" y="0px" width="1275px" height="93px" viewBox="-0.78 -1.104 1275 93" enable-background="new -0.78 -1.104 1275 93"
	 xml:space="preserve">
<defs>
</defs>
<path fill-rule="evenodd" clip-rule="evenodd" fill="#FF444C" d="M25.89,43.666c-1.5,1.84-3.34,2.76-5.52,2.76H6.19v-18.57H19.6
	c2.41,0,4.4,0.87,5.95,2.52c1.55,1.64,2.32,3.62,2.32,5.85v1.74C27.87,40.096,27.19,41.976,25.89,43.666z M21.68,14.315
	c0,1.94-0.88,3.63-2.52,5.13c-1.65,1.5-3.24,2.22-4.79,2.22H6.19v-8.12c0-2.03,0.77-3.73,2.32-5.18c1.55-1.45,3.34-2.17,5.47-2.17
	c1.94,0,3.73,0.72,5.32,2.17c1.55,1.45,2.38,3.2,2.38,5.13V14.315z M34.06,34.815c0-2.7-0.87-5.17-2.56-7.39
	c-1.89-2.42-4.26-3.78-7.07-4.16c2.28-2.57,3.44-5.56,3.44-9.05v-0.82c0-3.77-1.4-7.01-4.16-9.62c-2.81-2.61-6.05-3.87-9.83-3.77
	c-3.77,0.09-7.01,1.4-9.72,3.82C1.35,6.436,0,9.625,0,13.396v39.22h19.35c4.02-0.1,7.46-1.45,10.36-4.01
	c2.9-2.52,4.35-5.66,4.35-9.43V34.815z"/>
<path fill-rule="evenodd" clip-rule="evenodd" fill="#FF444C" d="M52.65,52.616v-40.76h-6.2v40.76H52.65z M52.65,6.195v-6.19h-6.2
	v6.19H52.65z"/>
<path fill-rule="evenodd" clip-rule="evenodd" fill="#FF444C" d="M69.87,49.136c2.91,2.32,6.49,3.48,10.7,3.48v-6.19
	c-2.71,0-4.99-0.77-6.73-2.32c-1.74-1.55-2.61-3.58-2.61-6.19V0.005h-6.2v39.36C65.03,43.425,66.63,46.666,69.87,49.136z"/>
<path fill-rule="evenodd" clip-rule="evenodd" fill="#FF444C" d="M111.49,38.206c0,2.22-0.73,4.11-2.13,5.66
	c-1.5,1.74-3.39,2.56-5.61,2.56c-2.28,0-4.16-0.82-5.62-2.56c-1.45-1.55-2.12-3.44-2.12-5.66v-11.41c0-2.18,0.72-4.11,2.17-5.76
	c1.45-1.64,3.29-2.46,5.57-2.46c2.22,0,4.11,0.82,5.56,2.46c1.45,1.65,2.18,3.58,2.18,5.76V38.206z M96.01,0.005h-6.2v39.21
	c0,3.82,1.36,7.02,4.11,9.58c2.71,2.56,6,3.82,9.83,3.82c3.77,0,7.06-1.26,9.82-3.77c2.71-2.52,4.11-5.61,4.11-9.34v-14.07
	c0-3.72-1.4-6.81-4.21-9.33c-2.8-2.47-6.09-3.72-9.87-3.72c-2.76,0-5.27,0.48-7.59,1.4V0.005z"/>
<path fill-rule="evenodd" clip-rule="evenodd" fill="#FF444C" d="M151.75,38.445c0,2.27-0.72,4.21-2.13,5.76
	c-1.5,1.74-3.38,2.56-5.66,2.56c-2.22,0-4.06-0.82-5.52-2.47c-1.45-1.64-2.17-3.62-2.17-5.85v-11.56c0-2.22,0.72-4.15,2.17-5.8
	c1.46-1.64,3.3-2.51,5.52-2.51h7.79V38.445z M167.33,52.616v-6.19c-2.71,0-4.93-0.73-6.63-2.22c-1.83-1.5-2.75-3.53-2.75-6.05
	v-25.77h-13.99c-3.72,0-6.97,1.25-9.68,3.67c-2.8,2.57-4.21,5.71-4.21,9.38v14.07c0,3.78,1.41,6.87,4.21,9.39
	c2.81,2.51,6.1,3.72,9.87,3.72c4.6,0,8.13-1.4,10.6-4.26l0.34-0.38C157.9,51.065,161.96,52.616,167.33,52.616z"/>
<path fill-rule="evenodd" clip-rule="evenodd" fill="#FF444C" d="M198.21,38.206c0,2.22-0.78,4.11-2.23,5.75
	c-1.45,1.65-3.29,2.47-5.51,2.47c-2.23,0-4.12-0.82-5.57-2.47c-1.45-1.64-2.18-3.53-2.18-5.75v-11.41c0-2.18,0.73-4.11,2.18-5.76
	c1.45-1.64,3.34-2.46,5.57-2.46c2.22,0,4.06,0.82,5.51,2.46c1.45,1.65,2.23,3.58,2.23,5.76V38.206z M200.24,48.896
	c2.76-2.52,4.16-5.61,4.16-9.39v-14.07c0-3.72-1.4-6.81-4.16-9.33c-2.76-2.47-6-3.72-9.77-3.72c-3.78,0-7.02,1.25-9.68,3.67
	c-2.86,2.52-4.26,5.66-4.26,9.38v14.07c0,3.78,1.4,6.87,4.26,9.39c2.66,2.51,5.9,3.72,9.68,3.72
	C194.24,52.616,197.48,51.405,200.24,48.896z"/>
<polygon fill-rule="evenodd" clip-rule="evenodd" fill="#FF444C" points="222.98,11.855 222.98,6.195 216.79,6.195 216.79,11.855 
	214.71,21.666 219.06,21.666 "/>
<path fill-rule="evenodd" clip-rule="evenodd" fill="#FF444C" d="M260.15,26.456c0-4.06-1.36-7.4-3.97-10.06
	c-2.61-2.66-5.95-4.01-9.97-4.01c-3.68,0-6.92,1.25-9.63,3.77c-2.9,2.71-4.3,6-4.3,9.86c0,3.2,1.11,5.81,3.33,7.93
	c2.23,2.13,4.84,3.2,7.84,3.2h5.67c1.25,0,2.32,0.38,3.29,1.06c0.96,0.72,1.45,1.6,1.45,2.66c0,1.64-0.78,3-2.28,4.01
	c-1.5,1.07-3.24,1.55-5.22,1.55c-2.23,0-4.07-0.73-5.42-2.22c-1.41-1.5-2.08-3.34-2.08-5.57h-6.58c0,3.97,1.3,7.26,4.01,9.97
	c2.66,2.7,5.95,4.01,9.92,4.01c3.78,0,7.02-1.11,9.78-3.34c2.76-2.22,4.16-5.07,4.16-8.56c0-2.75-1.11-5.07-3.34-6.96
	c-2.23-1.84-4.89-2.8-7.94-2.8h-5.66c-1.3,0-2.42-0.44-3.34-1.36c-0.96-0.92-1.4-2.08-1.4-3.53c0-2.03,0.77-3.82,2.37-5.27
	c1.6-1.45,3.39-2.22,5.37-2.22c2.33,0,4.21,0.77,5.62,2.27c1.4,1.5,2.13,3.34,2.13,5.56L260.15,26.456z"/>
<path fill-rule="evenodd" clip-rule="evenodd" fill="#FF444C" d="M321.03,48.846c2.75-2.52,4.16-5.61,4.16-9.38v-27.08h-6.2v25.72
	c0,2.23-0.77,4.21-2.22,5.85c-1.45,1.65-3.29,2.47-5.52,2.47s-4.11-0.82-5.56-2.47c-1.46-1.64-2.18-3.62-2.18-5.85v-25.72h-6.2
	v27.08c0,3.77,1.41,6.91,4.26,9.43c2.66,2.51,5.91,3.72,9.68,3.72C315.03,52.616,318.27,51.355,321.03,48.846z"/>
<path fill-rule="evenodd" clip-rule="evenodd" fill="#FF444C" d="M365.45,26.456c0-4.06-1.36-7.4-3.97-10.06s-5.95-4.01-9.97-4.01
	c-3.68,0-6.92,1.25-9.63,3.77c-2.9,2.71-4.3,6-4.3,9.86c0,3.2,1.11,5.81,3.33,7.93c2.23,2.13,4.84,3.2,7.84,3.2h5.67
	c1.25,0,2.32,0.38,3.29,1.06c0.96,0.72,1.45,1.6,1.45,2.66c0,1.64-0.78,3-2.28,4.01c-1.5,1.07-3.24,1.55-5.22,1.55
	c-2.23,0-4.07-0.73-5.42-2.22c-1.41-1.5-2.08-3.34-2.08-5.57h-6.58c0,3.97,1.3,7.26,4.01,9.97c2.66,2.7,5.95,4.01,9.92,4.01
	c3.78,0,7.02-1.11,9.78-3.34c2.76-2.22,4.16-5.07,4.16-8.56c0-2.75-1.11-5.07-3.34-6.96c-2.23-1.84-4.89-2.8-7.94-2.8h-5.66
	c-1.3,0-2.42-0.44-3.34-1.36c-0.96-0.92-1.4-2.08-1.4-3.53c0-2.03,0.77-3.82,2.37-5.27c1.6-1.45,3.39-2.22,5.37-2.22
	c2.33,0,4.21,0.77,5.62,2.27c1.4,1.5,2.13,3.34,2.13,5.56L365.45,26.456z"/>
<path fill-rule="evenodd" clip-rule="evenodd" fill="#FF444C" d="M399.52,30.956h-15.49v-3.05c0-2.47,0.73-4.64,2.18-6.53
	c1.45-1.84,3.34-2.8,5.56-2.8c2.23,0,4.07,0.96,5.52,2.8c1.45,1.89,2.23,4.06,2.23,6.53V30.956z M405.71,37.146v-10.74
	c0-4.01-1.4-7.35-4.16-10.01s-6-4.01-9.78-4.01c-3.77,0-7.01,1.25-9.67,3.67c-2.86,2.52-4.26,5.66-4.26,9.38v14.07
	c0,3.78,1.4,6.87,4.26,9.39c2.66,2.51,5.9,3.72,9.67,3.72c3.97,0,7.26-1.31,9.88-3.97c2.56-2.66,3.92-5.99,4.06-10.01h-6.39
	c-0.38,2.13-1.16,3.92-2.37,5.37c-1.45,1.65-3.19,2.42-5.32,2.42c-2.18,0-3.97-0.68-5.42-2.08c-1.45-1.35-2.18-3-2.18-4.84v-2.36
	H405.71z"/>
<path fill-rule="evenodd" clip-rule="evenodd" fill="#FF444C" d="M426.95,8.565c1.75-1.55,3.97-2.37,6.68-2.37v-6.19
	c-4.26,0-7.79,1.16-10.69,3.48c-3.24,2.51-4.84,5.8-4.84,9.86v39.27h6.19v-24.76h6.2v-6.19h-6.2v-6.91
	C424.29,12.186,425.16,10.105,426.95,8.565z"/>
<path fill-rule="evenodd" clip-rule="evenodd" fill="#FF444C" d="M466.59,48.846c2.76-2.52,4.16-5.61,4.16-9.38v-27.08h-6.2v25.72
	c0,2.23-0.77,4.21-2.22,5.85c-1.45,1.65-3.29,2.47-5.52,2.47c-2.22,0-4.11-0.82-5.56-2.47c-1.45-1.64-2.18-3.62-2.18-5.85v-25.72
	h-6.19v27.08c0,3.77,1.4,6.91,4.25,9.43c2.67,2.51,5.91,3.72,9.68,3.72C460.59,52.616,463.83,51.355,466.59,48.846z"/>
<path fill-rule="evenodd" clip-rule="evenodd" fill="#FF444C" d="M487.98,49.136c2.9,2.32,6.48,3.48,10.69,3.48v-6.19
	c-2.71,0-4.98-0.77-6.73-2.32c-1.74-1.55-2.61-3.58-2.61-6.19V0.005h-6.19v39.36C483.14,43.425,484.73,46.666,487.98,49.136z"/>
<path fill-rule="evenodd" clip-rule="evenodd" fill="#FF444C" d="M558.43,43.866c-1.5,1.74-3.38,2.56-5.61,2.56
	c-2.27,0-4.16-0.82-5.61-2.56c-1.45-1.6-2.13-3.48-2.13-5.71v-11.41c0-2.13,0.72-4.06,2.18-5.71c1.45-1.64,3.34-2.51,5.56-2.51
	c2.23,0,4.07,0.87,5.52,2.51c1.45,1.65,2.22,3.58,2.22,5.71v11.41C560.56,40.386,559.84,42.266,558.43,43.866z M566.76,25.436
	c0-3.72-1.41-6.81-4.21-9.33c-2.81-2.47-6.1-3.72-9.87-3.72c-4.41,0-8.04,1.59-10.84,4.74c-2.81-3.15-6.92-4.74-12.25-4.74v6.19
	c2.62,0,4.84,0.77,6.63,2.32c1.74,1.55,2.66,3.62,2.66,6.14v37.96h6.2v-13.69c2.32,0.87,4.84,1.31,7.55,1.31
	c3.82,0,7.11-1.21,9.92-3.72c2.8-2.47,4.21-5.56,4.21-9.34V25.436z"/>
<path fill-rule="evenodd" clip-rule="evenodd" fill="#FF444C" d="M580.89,49.136c2.9,2.32,6.48,3.48,10.69,3.48v-6.19
	c-2.71,0-4.98-0.77-6.72-2.32c-1.75-1.55-2.62-3.58-2.62-6.19V0.005h-6.19v39.36C576.05,43.425,577.65,46.666,580.89,49.136z"/>
<path fill-rule="evenodd" clip-rule="evenodd" fill="#FF444C" d="M622.5,38.445c0,2.27-0.72,4.21-2.12,5.76
	c-1.5,1.74-3.39,2.56-5.67,2.56c-2.22,0-4.06-0.82-5.51-2.47c-1.45-1.64-2.18-3.62-2.18-5.85v-11.56c0-2.22,0.73-4.15,2.18-5.8
	c1.45-1.64,3.29-2.51,5.51-2.51h7.79V38.445z M638.09,52.616v-6.19c-2.71,0-4.94-0.73-6.63-2.22c-1.84-1.5-2.76-3.53-2.76-6.05
	v-25.77h-13.99c-3.72,0-6.96,1.25-9.67,3.67c-2.81,2.57-4.21,5.71-4.21,9.38v14.07c0,3.78,1.4,6.87,4.21,9.39
	c2.8,2.51,6.09,3.72,9.87,3.72c4.59,0,8.13-1.4,10.6-4.26l0.33-0.38C628.65,51.065,632.72,52.616,638.09,52.616z"/>
<path fill-rule="evenodd" clip-rule="evenodd" fill="#FF444C" d="M671.38,48.646c2.61-2.66,3.97-5.99,4.11-10.01h-6.48
	c-0.39,2.13-1.16,3.92-2.42,5.37c-1.45,1.65-3.24,2.42-5.37,2.42c-2.23,0-4.12-0.82-5.57-2.47c-1.45-1.64-2.17-3.53-2.17-5.75
	v-11.41c0-2.18,0.72-4.11,2.17-5.76c1.45-1.64,3.34-2.46,5.57-2.46c2.13,0,3.92,0.82,5.37,2.46c1.26,1.45,2.03,3.29,2.42,5.42h6.48
	c-0.14-4.01-1.5-7.35-4.11-10.06c-2.61-2.66-5.95-4.01-9.97-4.01c-3.87,0-7.11,1.25-9.82,3.67c-2.91,2.52-4.31,5.66-4.31,9.38v14.07
	c0,3.78,1.4,6.87,4.31,9.39c2.71,2.51,5.95,3.72,9.82,3.72C665.43,52.616,668.77,51.306,671.38,48.646z"/>
<path fill-rule="evenodd" clip-rule="evenodd" fill="#FF444C" d="M709.22,30.956h-15.48v-3.05c0-2.47,0.72-4.64,2.17-6.53
	c1.46-1.84,3.34-2.8,5.57-2.8c2.23,0,4.06,0.96,5.52,2.8c1.45,1.89,2.22,4.06,2.22,6.53V30.956z M715.42,37.146v-10.74
	c0-4.01-1.41-7.35-4.17-10.01c-2.75-2.66-6-4.01-9.77-4.01c-3.77,0-7.02,1.25-9.68,3.67c-2.85,2.52-4.26,5.66-4.26,9.38v14.07
	c0,3.78,1.41,6.87,4.26,9.39c2.66,2.51,5.91,3.72,9.68,3.72c3.97,0,7.26-1.31,9.87-3.97c2.57-2.66,3.92-5.99,4.07-10.01h-6.39
	c-0.39,2.13-1.16,3.92-2.37,5.37c-1.45,1.65-3.2,2.42-5.33,2.42c-2.17,0-3.96-0.68-5.42-2.08c-1.45-1.35-2.17-3-2.17-4.84v-2.36
	H715.42z"/>
<path fill-rule="evenodd" clip-rule="evenodd" fill="#FF444C" d="M755.68,26.456c0-4.06-1.36-7.4-3.97-10.06
	c-2.61-2.66-5.95-4.01-9.97-4.01c-3.68,0-6.92,1.25-9.63,3.77c-2.9,2.71-4.31,6-4.31,9.86c0,3.2,1.12,5.81,3.34,7.93
	c2.23,2.13,4.84,3.2,7.84,3.2h5.66c1.26,0,2.33,0.38,3.3,1.06c0.96,0.72,1.45,1.6,1.45,2.66c0,1.64-0.78,3-2.28,4.01
	c-1.5,1.07-3.24,1.55-5.22,1.55c-2.23,0-4.07-0.73-5.42-2.22c-1.41-1.5-2.08-3.34-2.08-5.57h-6.59c0,3.97,1.31,7.26,4.02,9.97
	c2.66,2.7,5.95,4.01,9.92,4.01c3.78,0,7.02-1.11,9.78-3.34c2.75-2.22,4.16-5.07,4.16-8.56c0-2.75-1.11-5.07-3.34-6.96
	c-2.23-1.84-4.89-2.8-7.94-2.8h-5.66c-1.31,0-2.42-0.44-3.34-1.36c-0.97-0.92-1.4-2.08-1.4-3.53c0-2.03,0.77-3.82,2.37-5.27
	c1.6-1.45,3.39-2.22,5.37-2.22c2.32,0,4.21,0.77,5.61,2.27c1.41,1.5,2.13,3.34,2.13,5.56L755.68,26.456z"/>
<path fill-rule="evenodd" clip-rule="evenodd" fill="#FFFFFF" d="M814.52,38.206c0,2.22-0.77,4.11-2.22,5.75
	c-1.46,1.65-3.29,2.47-5.52,2.47s-4.11-0.82-5.57-2.47c-1.45-1.64-2.17-3.53-2.17-5.75v-11.41c0-2.18,0.72-4.11,2.17-5.76
	c1.46-1.64,3.34-2.46,5.57-2.46s4.06,0.82,5.52,2.46c1.45,1.65,2.22,3.58,2.22,5.76V38.206z M816.55,48.896
	c2.76-2.52,4.17-5.61,4.17-9.39v-14.07c0-3.72-1.41-6.81-4.17-9.33c-2.75-2.47-6-3.72-9.77-3.72s-7.02,1.25-9.68,3.67
	c-2.85,2.52-4.26,5.66-4.26,9.38v14.07c0,3.78,1.41,6.87,4.26,9.39c2.66,2.51,5.91,3.72,9.68,3.72S813.8,51.405,816.55,48.896z"/>
<path fill-rule="evenodd" clip-rule="evenodd" fill="#FFFFFF" d="M830.01,12.386v6.09c2.61,0,4.84,0.77,6.63,2.27
	c1.74,1.5,2.66,3.48,2.66,6v25.87h6.19v-25.77c0-2.23,0.73-4.16,2.18-5.81c1.45-1.64,3.34-2.46,5.57-2.46
	c2.22,0,4.06,0.82,5.51,2.46c1.45,1.65,2.23,3.58,2.23,5.81v25.77h6.19v-27.08c0-3.72-1.4-6.87-4.21-9.38
	c-2.8-2.52-6.1-3.77-9.87-3.77c-4.4,0-8.03,1.54-10.84,4.54C839.44,13.925,835.33,12.386,830.01,12.386z"/>
<path fill-rule="evenodd" clip-rule="evenodd" fill="#FFFFFF" d="M929.11,12.386h-6.19v25.77c0,2.23-0.73,4.16-2.18,5.8
	c-1.45,1.65-3.34,2.47-5.61,2.47c-2.23,0-4.12-0.87-5.57-2.61c-1.45-1.55-2.13-3.43-2.13-5.66v-25.77h-6.19v27.12
	c0,3.73,1.35,6.82,4.16,9.34c2.81,2.51,6.1,3.77,9.92,3.77c1.36,0,3.34-0.24,5.95-0.77l1.65-0.44c-0.29,2.32-1.26,4.16-2.9,5.51
	c-1.7,1.26-3.73,1.94-6.1,1.94v6.14c4.06,0,7.55-1.16,10.45-3.48c3.15-2.52,4.74-5.81,4.74-9.87V12.386z"/>
<path fill-rule="evenodd" clip-rule="evenodd" fill="#FFFFFF" d="M963.18,38.206c0,2.22-0.77,4.11-2.23,5.75
	c-1.45,1.65-3.29,2.47-5.51,2.47c-2.229,0-4.12-0.82-5.57-2.47c-1.45-1.64-2.17-3.53-2.17-5.75v-11.41c0-2.18,0.72-4.11,2.17-5.76
	c1.45-1.64,3.34-2.46,5.57-2.46c2.22,0,4.06,0.82,5.51,2.46c1.46,1.65,2.23,3.58,2.23,5.76V38.206z M965.21,48.896
	c2.76-2.52,4.17-5.61,4.17-9.39v-14.07c0-3.72-1.41-6.81-4.17-9.33c-2.75-2.47-6-3.72-9.771-3.72c-3.78,0-7.02,1.25-9.68,3.67
	c-2.86,2.52-4.26,5.66-4.26,9.38v14.07c0,3.78,1.4,6.87,4.26,9.39c2.66,2.51,5.9,3.72,9.68,3.72
	C959.21,52.616,962.46,51.405,965.21,48.896z"/>
<path fill-rule="evenodd" clip-rule="evenodd" fill="#FFFFFF" d="M1005.48,48.846c2.75-2.52,4.16-5.61,4.16-9.38v-27.08h-6.2v25.72
	c0,2.23-0.77,4.21-2.22,5.85c-1.46,1.65-3.29,2.47-5.52,2.47s-4.11-0.82-5.57-2.47c-1.45-1.64-2.17-3.62-2.17-5.85v-25.72h-6.2
	v27.08c0,3.77,1.41,6.91,4.26,9.43c2.66,2.51,5.91,3.72,9.68,3.72S1002.72,51.355,1005.48,48.846z"/>
<path fill-rule="evenodd" clip-rule="evenodd" fill="#FFFFFF" d="M1037.51,12.386c-3.73,0-6.82,0.67-9.29,2.03v-2.03h-6.2v40.23h6.2
	v-25.73c0-2.51,0.87-4.49,2.66-6.04c1.74-1.5,3.97-2.27,6.63-2.27V12.386z"/>
<path fill-rule="evenodd" clip-rule="evenodd" fill="#FFFFFF" d="M1080.87,0.005h-6.2v52.61h6.2v-25.73c0-2.22,0.72-4.15,2.18-5.8
	c1.45-1.64,3.29-2.51,5.56-2.51c2.23,0,4.12,0.87,5.57,2.51c1.45,1.65,2.17,3.58,2.17,5.8v25.73h6.2v-27.13
	c0-3.72-1.4-6.82-4.21-9.33c-2.81-2.52-6.1-3.77-9.87-3.77c-2.76,0-5.28,0.48-7.6,1.4V0.005z"/>
<path fill-rule="evenodd" clip-rule="evenodd" fill="#FFFFFF" d="M1136.62,38.445c0,2.27-0.73,4.21-2.13,5.76
	c-1.5,1.74-3.39,2.56-5.67,2.56c-2.22,0-4.06-0.82-5.51-2.47c-1.45-1.64-2.18-3.62-2.18-5.85v-11.56c0-2.22,0.73-4.15,2.18-5.8
	c1.45-1.64,3.29-2.51,5.51-2.51h7.8V38.445z M1152.2,52.616v-6.19c-2.71,0-4.94-0.73-6.63-2.22c-1.84-1.5-2.76-3.53-2.76-6.05
	v-25.77h-13.99c-3.72,0-6.96,1.25-9.67,3.67c-2.81,2.57-4.21,5.71-4.21,9.38v14.07c0,3.78,1.4,6.87,4.21,9.39
	c2.8,2.51,6.09,3.72,9.87,3.72c4.6,0,8.13-1.4,10.6-4.26l0.34-0.38C1142.76,51.065,1146.83,52.616,1152.2,52.616z"/>
<path fill-rule="evenodd" clip-rule="evenodd" fill="#FFFFFF" d="M1158.3,12.386v6.09c2.61,0,4.83,0.77,6.63,2.27
	c1.74,1.5,2.66,3.48,2.66,6v25.87h6.19v-25.77c0-2.23,0.73-4.16,2.18-5.81c1.45-1.64,3.34-2.46,5.56-2.46
	c2.23,0,4.07,0.82,5.52,2.46c1.45,1.65,2.23,3.58,2.23,5.81v25.77h6.19v-27.08c0-3.72-1.4-6.87-4.21-9.38
	c-2.811-2.52-6.101-3.77-9.87-3.77c-4.41,0-8.03,1.54-10.84,4.54C1167.73,13.925,1163.62,12.386,1158.3,12.386z"/>
<path fill-rule="evenodd" clip-rule="evenodd" fill="#FFFFFF" d="M1226.43,26.355c0-2.27-0.73-4.25-2.18-5.95
	c-1.45-1.69-3.34-2.56-5.561-2.56c-2.28,0-4.12,0.87-5.57,2.56c-1.45,1.7-2.17,3.68-2.17,5.95v11.75c0,2.32,0.67,4.26,2.12,5.85
	c1.46,1.79,3.34,2.66,5.62,2.66c2.22,0,4.11-0.87,5.61-2.66c1.4-1.59,2.13-3.53,2.13-5.85V26.355z M1229.77,47.925l-0.19,0.19
	c-3.15,3-6.73,4.5-10.7,4.5c-3.87,0-7.21-1.26-9.97-3.82c-2.8-2.52-4.16-5.71-4.16-9.53v-14.26c0-3.77,1.36-6.97,4.16-9.48
	c2.81-2.51,6.1-3.82,9.92-3.82c2.71,0,5.28,0.73,7.6,2.08V0.005h6.53v37.91c0,2.61,0.83,4.64,2.52,6.19
	c1.69,1.55,3.87,2.32,6.53,2.32v6.19c-5.37,0-9.43-1.55-12.24-4.64V47.925z"/>
</svg>
