<?xml version="1.0" encoding="utf-8"?>
<!-- Generator: Adobe Illustrator 15.0.0, SVG Export Plug-In  -->
<!DOCTYPE svg PUBLIC "-//W3C//DTD SVG 1.1//EN" "http://www.w3.org/Graphics/SVG/1.1/DTD/svg11.dtd" [
	<!ENTITY ns_flows "http://ns.adobe.com/Flows/1.0/">
]>
<svg version="1.1"
	 xmlns="http://www.w3.org/2000/svg" xmlns:xlink="http://www.w3.org/1999/xlink" xmlns:a="http://ns.adobe.com/AdobeSVGViewerExtensions/3.0/"
	 x="0px" y="0px" width="988px" height="353px" viewBox="-15.075 -4.664 988 353" enable-background="new -15.075 -4.664 988 353"
	 xml:space="preserve">
<defs>
</defs>
<path fill-rule="evenodd" clip-rule="evenodd" fill="#FFFFFF" d="M84.867,92.747c-5.097,5.213-7.622,11.962-7.622,20.171
	c0,8.188,2.524,14.839,7.692,19.912c5.073,5.073,11.843,7.575,20.196,7.575c13.874,0,25.741,5.073,35.58,15.219
	c9.814,10.143,14.792,22.414,14.792,36.71c0,14.346-4.907,26.52-14.747,36.475c-9.839,10.051-21.636,15.007-35.46,15.007
	c-13.828,0-25.6-4.766-35.225-14.439c-9.744-9.721-14.535-21.422-14.535-35.296V31.472c0-8.256-2.619-14.958-7.809-20.101
	c-5.214-5.073-11.986-7.667-20.196-7.667C19.536,3.704,13,6.369,7.81,11.561C2.596,16.799,0,23.428,0,31.402v162.301
	c0,29.54,10.168,54.548,30.53,74.932c20.386,20.48,45.3,30.626,74.769,30.626c29.444,0,54.431-10.335,74.98-31.003
	c20.478-20.668,30.789-46.008,30.789-75.924c0-30.152-10.262-55.632-30.673-76.3c-20.502-20.667-45.606-31.049-75.378-31.049
	C96.663,84.984,89.964,87.555,84.867,92.747z"/>
<path fill-rule="evenodd" clip-rule="evenodd" fill="#FFFFFF" d="M279.207,9.931c6.724,6.583,10.073,14.489,10.073,23.618
	c0,9.226-3.349,17.154-10.073,23.712c-6.724,6.583-14.747,9.885-23.995,9.885c-9.392,0-17.39-3.302-24.089-9.885
	c-6.7-6.559-10.075-14.486-10.075-23.712c0-9.129,3.375-17.035,10.075-23.618C237.823,3.351,245.821,0,255.212,0
	C264.46,0,272.483,3.351,279.207,9.931z M283.995,113.201c0-18.827-9.367-28.216-27.98-28.216c-8.212,0-14.888,2.57-19.985,7.763
	c-5.073,5.213-7.572,12.032-7.572,20.454v157.841c0,8.446,2.5,15.243,7.572,20.433c5.097,5.189,11.772,7.786,19.985,7.786
	c8.209,0,14.979-2.597,20.172-7.786c5.238-5.189,7.808-11.986,7.808-20.433V113.201z"/>
<path fill-rule="evenodd" clip-rule="evenodd" fill="#FFFFFF" d="M338.568,3.704c-8.21,0-14.863,2.595-19.936,7.667
	c-5.097,5.143-7.597,11.845-7.597,20.15v239.898c0,8.354,2.5,15.053,7.597,20.15c5.073,5.095,11.726,7.691,19.936,7.691
	c8.234,0,15.007-2.597,20.22-7.691c5.189-5.098,7.809-11.797,7.809-20.15V31.521C366.597,13,357.208,3.704,338.568,3.704z"/>
<path fill-rule="evenodd" clip-rule="evenodd" fill="#E42728" d="M722.127,155.388c9.863,10.051,14.817,22.179,14.817,36.521
	c0,14.3-4.954,26.52-14.817,36.714c-9.815,10.146-21.611,15.193-35.437,15.193c-13.827,0-25.624-5.048-35.249-15.193
	c-9.72-10.194-14.535-22.414-14.535-36.714c0-14.342,4.815-26.47,14.535-36.521c9.625-10.004,21.422-14.982,35.249-14.982
	C700.516,140.405,712.312,145.383,722.127,155.388z M611.711,115.798c-20.291,20.549-30.296,45.959-30.296,76.11
	c0,30.201,10.571,55.164,30.296,76.35c37.087,39.826,71.629,75.736,75.97,75.736c7.36,0,35.484-24.681,74.177-75.736
	c17.507-23.122,30.578-46.148,30.578-76.35c0-30.151-10.238-55.562-30.578-76.11c-20.383-20.551-45.44-30.813-75.167-30.813
	C656.916,84.984,631.954,95.247,611.711,115.798z"/>
<path fill-rule="evenodd" clip-rule="evenodd" fill="#FFFFFF" d="M476.259,92.747c-5.095,5.213-7.643,11.962-7.643,20.171
	c0,8.188,2.548,14.839,7.713,19.912c5.098,5.073,11.867,7.575,20.196,7.575c13.897,0,25.74,5.073,35.58,15.219
	c9.86,10.143,14.816,22.414,14.816,36.71c0,14.346-4.956,26.52-14.771,36.475c-9.837,10.051-21.611,15.007-35.437,15.007
	c-13.849,0-25.6-4.766-35.249-14.439c-9.744-9.721-14.532-21.422-14.532-35.296V31.472c0-8.256-2.597-14.958-7.811-20.101
	c-5.214-5.073-11.984-7.667-20.172-7.667c-7.998,0-14.535,2.665-19.749,7.857c-5.213,5.238-7.808,11.867-7.808,19.841v162.301
	c0,29.54,10.191,54.548,30.529,74.932c20.386,20.48,45.324,30.626,74.792,30.626c29.42,0,54.407-10.335,74.98-31.003
	c20.478-20.668,30.765-46.008,30.765-75.924c0-30.152-10.238-55.632-30.67-76.3c-20.48-20.667-45.585-31.049-75.381-31.049
	C488.08,84.984,481.357,87.555,476.259,92.747z"/>
<path fill-rule="evenodd" clip-rule="evenodd" fill="#E42728" d="M832.782,290.626c-5.333,5.284-12.317,7.928-20.717,7.928
	c-8.491,0-15.335-2.644-20.524-8.022c-5.237-5.285-7.832-12.082-7.832-20.479v-93.904c0-25.668,8.54-47.187,25.716-64.504
	c17.176-17.341,38.506-25.977,64.032-25.977c25.244,0,46.384,8.681,63.56,26.117c17.179,17.461,25.766,38.788,25.766,64.271v94.469
	c0,8.399-2.644,15.146-7.833,20.288c-5.238,5.144-12.078,7.741-20.527,7.741c-8.445,0-15.334-2.598-20.714-7.692
	c-5.333-5.143-8.022-11.892-8.022-20.245v-94.089c0-9.438-3.112-17.414-9.294-23.973c-6.136-6.51-13.827-9.766-22.935-9.766
	c-9.202,0-16.846,3.256-23.217,9.815c-6.322,6.559-9.389,14.532-9.389,24.017v93.524
	C840.851,278.544,838.115,285.339,832.782,290.626z"/>
</svg>
